<?xml version="1.0" encoding="utf-8"?>
<!-- Generator: Adobe Illustrator 16.0.0, SVG Export Plug-In . SVG Version: 6.00 Build 0)  -->
<!DOCTYPE svg PUBLIC "-//W3C//DTD SVG 1.1//EN" "http://www.w3.org/Graphics/SVG/1.1/DTD/svg11.dtd">
<svg version="1.1" id="Layer_1" xmlns="http://www.w3.org/2000/svg" xmlns:xlink="http://www.w3.org/1999/xlink" x="0px" y="0px"
	 width="720.879px" height="311.811px" viewBox="0 0 720.879 311.811" enable-background="new 0 0 720.879 311.811"
	 xml:space="preserve">
<g>
	<g>
		<path fill="#282829" d="M376.523,258.662c0,2.935,2.379,5.314,5.314,5.314s5.315-2.38,5.315-5.314c0-2.936-2.38-5.315-5.315-5.315
			S376.523,255.725,376.523,258.662L376.523,258.662z M374.751,258.662v-14.173h1.772v9.487c1.298-1.472,3.197-2.401,5.314-2.401
			c3.913,0,7.086,3.173,7.086,7.087s-3.173,7.087-7.086,7.087C377.924,265.749,374.751,262.576,374.751,258.662"/>
		<path fill="#282829" d="M429.899,258.661c0,2.937-2.38,5.315-5.315,5.315c-2.935,0-5.315-2.379-5.315-5.315
			c0-2.935,2.381-5.314,5.315-5.314C427.52,253.346,429.899,255.726,429.899,258.661 M431.671,265.748v-7.087
			c0-3.913-3.173-7.086-7.087-7.086c-3.913,0-7.086,3.173-7.086,7.086c0,3.914,3.173,7.087,7.086,7.087h0.001
			c2.117,0,4.016-0.93,5.314-2.401v2.401H431.671z"/>
		<path fill="#282829" d="M344.358,258.662c0,2.935-2.379,5.314-5.315,5.314c-2.935,0-5.315-2.38-5.315-5.314
			c0-2.936,2.38-5.315,5.315-5.315C341.979,253.346,344.358,255.726,344.358,258.662 M346.13,258.662
			c0-3.914-3.173-7.087-7.087-7.087c-3.913,0-7.086,3.173-7.086,7.087s3.173,7.087,7.086,7.087
			C342.957,265.749,346.13,262.576,346.13,258.662"/>
	</g>
	<rect x="301.611" y="244.488" fill="#282829" width="1.772" height="21.26"/>
	<g>
		<path fill="#282829" d="M271.267,258.661c0,2.937-2.379,5.315-5.315,5.315c-2.935,0-5.315-2.379-5.315-5.315
			c0-2.935,2.38-5.314,5.315-5.314C268.888,253.346,271.267,255.726,271.267,258.661 M273.039,265.748v-7.087
			c0-3.913-3.173-7.086-7.087-7.086c-3.913,0-7.086,3.173-7.086,7.086c0,3.914,3.173,7.087,7.086,7.087
			c2.118,0,4.017-0.93,5.315-2.401v2.401c0,2.936-2.379,5.315-5.315,5.315c-2.935,0-5.315-2.38-5.315-5.315h-1.771
			c0,3.914,3.173,7.088,7.086,7.088C269.866,272.835,273.039,269.662,273.039,265.748"/>
	</g>
	<rect x="460.244" y="244.488" fill="#00023D" width="1.771" height="21.26"/>
	<path fill="#282829" d="M665.164,152.362c0,23.483-19.037,42.521-42.521,42.521c-23.482,0-42.52-19.037-42.52-42.521
		c0-23.483,19.037-42.52,42.52-42.52C646.127,109.842,665.164,128.879,665.164,152.362 M679.337,152.362
		c0-31.311-25.382-56.693-56.693-56.693c-31.31,0-56.692,25.382-56.692,56.693c0,31.312,25.383,56.693,56.692,56.693
		C653.955,209.055,679.337,183.673,679.337,152.362"/>
	<path fill="#282829" d="M334.457,152.362V38.976h-14.173v75.907c-6.323-7.167-14.432-12.714-23.624-15.968v15.357
		c13.998,6.957,23.622,21.394,23.624,38.086v0.004c0,23.483-19.037,42.519-42.52,42.519c-6.79,0-13.204-1.601-18.898-4.431v15.364
		c5.912,2.091,12.27,3.239,18.898,3.239v0.001C309.075,209.055,334.457,183.673,334.457,152.362"/>
	<path fill="#282829" d="M98.234,109.842c6.791,0,13.204,1.6,18.899,4.431V98.908c-5.913-2.091-12.271-3.239-18.899-3.239
		c-31.311,0-56.693,25.382-56.693,56.693v113.386h14.173v-75.907c6.322,7.167,14.43,12.713,23.621,15.967v-15.357
		c-13.996-6.958-23.619-21.394-23.621-38.084v-0.004C55.714,128.879,74.751,109.842,98.234,109.842"/>
	<path fill="#282829" d="M230.519,152.362c0,23.483-19.037,42.521-42.52,42.521c-23.483,0-42.52-19.037-42.52-42.521
		c0-23.483,19.037-42.519,42.52-42.519C211.482,109.843,230.519,128.879,230.519,152.362 M244.692,209.055v-56.693
		c0-31.31-25.382-56.693-56.693-56.693c-31.31,0-56.693,25.383-56.693,56.693c0,31.312,25.383,56.693,56.693,56.693h0.007
		c16.936-0.002,32.126-7.439,42.513-19.214v19.214H244.692z"/>
	<path fill="#282829" d="M447.244,145.275h-83.842c3.376-20.108,20.854-35.433,41.921-35.433
		C426.39,109.842,443.868,125.167,447.244,145.275 M462.016,152.362c0-31.311-25.382-56.693-56.692-56.693
		c-31.312,0-56.693,25.382-56.693,56.693c0,31.312,25.382,56.693,56.693,56.693c16.022,0,30.481-6.657,40.793-17.344l-10.022-10.022
		c-7.744,8.123-18.662,13.193-30.771,13.193c-21.067,0-38.545-15.325-41.921-35.434h83.842h14.314
		C461.849,157.126,462.016,154.764,462.016,152.362"/>
	<path fill="#282829" d="M532.882,194.629c6.79,0,13.204-1.601,18.898-4.432v15.365c-5.912,2.091-12.271,3.239-18.898,3.239
		c-31.311,0-56.692-25.382-56.692-56.693c0-29.533,22.585-53.781,51.424-56.44v14.257c-20.995,2.597-37.251,20.486-37.251,42.183
		C490.362,175.592,509.399,194.629,532.882,194.629"/>
</g>
</svg>
